<svg width="1981" height="1700" viewBox="0 0 1981 1700" fill="none" xmlns="http://www.w3.org/2000/svg">
<g clip-path="url(#clip0_42_30)">
<path d="M1692.32 247.045C1506.1 87.8285 1258.47 0.0971416 994.644 0C450.988 0 8.56214 377.878 8.34449 842.344C8.28114 990.812 53.6859 1135.74 139.988 1263.49L0.0639648 1700L522.913 1582.87C666.967 1649.99 829.164 1685.36 994.22 1685.41H994.639H994.644C1538.21 1685.41 1980.7 1307.47 1980.94 843.027C1981.03 617.925 1878.52 406.273 1692.32 247.045ZM994.644 1543.14H994.324C847.201 1543.07 702.927 1509.33 577.085 1445.53L547.137 1430.36L236.868 1499.86L319.705 1241.5L300.193 1215.01C218.127 1103.53 174.803 974.69 174.864 842.398C175.045 456.349 542.773 142.281 994.954 142.281C1213.93 142.358 1419.73 215.281 1574.52 347.617C1729.29 479.952 1814.47 655.872 1814.4 842.967C1814.21 1229.03 1446.47 1543.14 994.644 1543.14Z" fill="#E0E0E0"/>
<path d="M45.3408 1651.57L178.874 1234.99C96.4923 1113.08 53.1698 974.762 53.2218 833.103C53.4378 389.863 475.658 29.2563 994.435 29.2563C1246.22 29.3535 1482.54 113.073 1660.22 265.02C1837.94 416.966 1935.75 618.936 1935.65 833.732C1935.43 1276.98 1513.18 1637.62 994.472 1637.62C994.498 1637.62 994.435 1637.62 994.472 1637.62H994.053C836.537 1637.58 681.762 1603.8 544.297 1539.79L45.3408 1651.57Z" fill="url(#paint0_linear_42_30)"/>
<path fill-rule="evenodd" clip-rule="evenodd" d="M750.92 484.728C732.673 450.067 713.461 449.373 696.101 448.766C681.901 448.246 665.646 448.278 649.416 448.278C633.173 448.278 606.779 453.493 584.458 474.32C562.124 495.147 499.184 545.496 499.184 647.895C499.184 750.306 586.489 849.259 598.658 863.157C610.84 877.034 767.188 1093.89 1014.8 1177.32C1220.59 1246.65 1262.46 1232.86 1307.13 1229.39C1351.8 1225.92 1451.26 1179.05 1471.56 1130.45C1491.87 1081.85 1491.87 1040.2 1485.77 1031.5C1479.68 1022.82 1463.44 1017.62 1439.08 1007.21C1414.71 996.802 1294.95 946.442 1272.62 939.503C1250.28 932.565 1234.04 929.095 1217.8 949.934C1201.55 970.75 1154.89 1017.62 1140.68 1031.5C1126.47 1045.4 1112.26 1047.14 1087.89 1036.73C1063.53 1026.29 985.068 1004.34 891.991 933.431C819.571 878.268 770.677 810.138 756.465 789.302C742.253 768.485 754.941 757.21 767.162 746.834C778.1 737.51 791.526 722.538 803.708 710.384C815.864 698.23 819.925 689.557 828.046 675.679C836.168 661.78 832.107 649.627 826.016 639.219C819.925 628.811 772.581 525.883 750.92 484.728Z" fill="white"/>
<path d="M1684.26 244.368C1500.18 86.9792 1255.39 0.256732 994.599 0.158203C457.182 0.158203 19.8348 373.698 19.6188 832.832C19.5554 979.598 64.4388 1122.86 149.75 1249.14L11.4341 1680.64L528.281 1564.85C670.684 1631.2 831.017 1666.17 994.18 1666.22H994.594H994.599C1531.93 1666.22 1969.34 1292.62 1969.57 833.504C1969.66 610.99 1868.33 401.768 1684.26 244.368ZM994.599 1525.58H994.282C848.847 1525.52 706.228 1492.16 581.832 1429.09L552.226 1414.1L245.519 1482.8L327.405 1227.41L308.116 1201.22C226.992 1091.02 184.165 963.66 184.229 832.888C184.406 451.271 547.912 140.808 994.904 140.808C1211.36 140.884 1414.8 212.97 1567.81 343.787C1720.81 474.603 1805.01 648.503 1804.94 833.453C1804.75 1215.08 1441.23 1525.58 994.599 1525.58Z" fill="white"/>
</g>
<defs>
<linearGradient id="paint0_linear_42_30" x1="990.494" y1="1651.57" x2="990.494" y2="29.2591" gradientUnits="userSpaceOnUse">
<stop stop-color="#20B038"/>
<stop offset="1" stop-color="#60D66A"/>
</linearGradient>
<clipPath id="clip0_42_30">
<rect width="1981" height="1700" fill="white"/>
</clipPath>
</defs>
</svg>
